<?xml version="1.0" encoding="UTF-8"?><svg id="Layer_2" xmlns="http://www.w3.org/2000/svg" viewBox="0 0 548 185.0253"><g id="Components"><g id="cd763d40-1c5d-4b45-aa66-b55ba8ac58ec_1"><path d="M67.069,72.4384h58.3202v75.2832h-22.8301v-18.8119c-1.9204,3.236-4.0892,6.1164-6.508,8.677-4.1604,4.3384-9.1386,7.6102-14.9712,9.7794-5.8317,2.2048-12.5176,3.3072-20.0562,3.3072-12.2685,0-22.9733-2.8805-32.1476-8.6058-9.1395-5.7255-16.2518-14.1535-21.3012-25.3552C2.5256,105.5459,0,91.9615,0,75.9945c0-15.5759,2.7027-29.0535,8.1081-40.4688,5.441-11.4153,13.1575-20.1988,23.186-26.3154C41.3582,3.0582,53.2352,0,66.9978,0c10.8464,0,20.5545,2.027,29.1957,6.0811,8.6056,4.0182,15.5407,9.8859,20.7681,17.6027,5.2274,7.717,8.1081,16.9984,8.7479,27.8446h-27.5956c-.4983-6.1164-2.0984-11.3441-4.907-15.6471-2.8095-4.3028-6.4724-7.61-11.0599-9.8503-4.5875-2.276-9.7794-3.3784-15.5763-3.3784-8.214,0-15.2559,1.9914-21.1232,6.0455-5.8673,4.054-10.348,9.9571-13.4423,17.7451-3.0934,7.7879-4.6231,17.2118-4.6231,28.3423,0,11.3797,1.5654,21.0524,4.6943,29.0537,3.1298,7.9657,7.6106,14.0112,13.4423,18.065,5.8325,4.0896,12.7668,6.1167,20.8393,6.1167,6.2232,0,11.5218-1.3158,15.9314-3.9473,4.4096-2.5961,7.8233-5.9033,10.2768-9.8861,2.4188-3.9828,4.0545-8.0369,4.9435-12.2331,.2483-1.4579,.8534-2.4893,1.8128-3.0938,.9255-.5689,2.2052-.8534,3.8409-.8534h3.5205c1.8137,0,3.5205-.4623,5.1215-1.3869,1.5645-.96,2.8086-2.2048,3.7332-3.7695,.889-1.5291,1.3518-3.2004,1.3518-5.0496,0-1.8849-.4627-3.5917-1.3518-5.1564-.9246-1.5291-2.1688-2.7383-3.7332-3.6273-1.601-.889-3.3078-1.3158-5.1215-1.3158-1.956,0-3.6976,.4267-5.2274,1.3158-1.5645,.889-2.8095,2.0982-3.6985,3.6273-.9246,1.5647-1.3865,3.2716-1.3865,5.1564v1.3158c0,1.4225-.356,2.4537-1.1026,3.1294-.7466,.6757-1.8849,1.0312-3.4137,1.0312h-24.7861v-20.8389Z" style="fill:#acabd3;"/><path d="M176.0284,65.6459c.5892-1.5236,1.5726-3.549,2.6129-5.7693,1.2273-2.6196,2.5086-5.2545,4.0375-7.5305,2.7739-4.125,6.33-7.2544,10.6684-9.4592,4.3384-2.1692,9.3878-3.2716,15.1136-3.2716,1.956,0,3.6985,.1778,5.263,.4977v25.0709c-2.5247-.6757-5.2274-1.0314-8.2149-1.0314-5.2986,0-10.0633,1.2092-14.2245,3.5561-4.196,2.3472-7.4674,5.9389-9.8505,10.7396-2.4179,4.8363-3.5917,10.775-3.5917,17.8518v51.4215h-25.6752V41.6424h23.8615v24.0036Z" style="fill:#acabd3;"/><path d="M315.6065,136.7332c-.7111-4.1252-1.067-8.606-1.067-13.4423v-45.0917c0-8.2147-1.6713-15.2913-5.085-21.1946-3.4137-5.9387-8.392-10.455-14.9712-13.6198-6.5436-3.1294-14.5093-4.6941-23.8971-4.6941-9.0327,0-16.9984,1.5291-23.9327,4.6229-6.9343,3.0582-12.3397,7.3256-16.2162,12.8376-3.8756,5.4766-5.9385,11.6998-6.2232,18.6341h26.5642c.356-5.3342,2.312-9.5304,5.9393-12.5886,3.5909-3.0582,8.3208-4.5873,14.1881-4.5873,3.9121,0,7.1835,.6401,9.8505,1.9558s4.6587,3.0582,5.9749,5.2274c1.2797,2.1338,1.9552,4.4452,1.9552,6.9701,0,2.276-.5331,4.125-1.5645,5.5832-1.0314,1.4579-2.7027,2.5959-4.9426,3.4493-2.2755,.8537-5.3342,1.5647-9.2463,2.1694l-17.7807,2.7381c-10.8099,1.6003-19.1316,5.0852-24.9641,10.3841-5.8673,5.3342-8.8191,12.9088-8.8191,22.7591,0,6.401,1.5289,11.9841,4.5164,16.8206,2.9875,4.8007,7.1479,8.5346,12.4109,11.0951,5.2986,2.5959,11.2379,3.9117,17.8518,3.9117,6.2588,0,11.9846-1.138,17.1408-3.4493,5.1562-2.276,9.4234-5.3342,12.8727-9.1393,1.3162-1.4581,2.49-2.9872,3.5214-4.552,.0703,1.4225,.1771,2.8449,.3551,4.2674,.4627,3.7339,1.067,7.0411,1.8849,9.9215h26.7778v-3.236c-1.3518-1.0668-2.3832-3.6629-3.0942-7.7523Zm-26.315-31.0452c-.3204,4.8719-1.4942,9.2105-3.4493,13.0512-1.956,3.8405-4.7299,6.8633-8.3217,9.0325-3.5917,2.2048-7.8945,3.3072-12.8727,3.3072-4.9435,0-8.9615-1.2446-12.0914-3.7695-3.129-2.4893-4.6943-5.8675-4.6943-10.2061,0-4.303,1.423-7.7167,4.2325-10.2061,2.8451-2.4893,7.1835-4.3386,13.0507-5.5476l10.4904-2.1336c1.5645-.3201,3.1298-.6403,4.6587-.889,2.3111-.4623,8.0102-2.2703,9.0069-3.3015,.4732,5.8528-.0098,10.6625-.0098,10.6625Z" style="fill:#acabd3;"/><path d="M428.6246,115.3965c0,7.61-1.956,14.0821-5.8673,19.3454-3.9121,5.2986-9.2463,9.2814-16.0382,11.9485-6.8275,2.6315-14.5449,3.9828-23.1504,3.9828-9.7794,0-18.2434-1.4579-25.4269-4.3384-7.1826-2.9161-12.7304-7.1123-16.7136-12.5888-3.9824-5.512-6.0452-12.0553-6.152-19.6653h26.849c.1424,5.6541,2.2052,10.0637,6.2232,13.1931s9.2107,4.6941,15.6119,4.6941c5.6537,0,10.1344-1.1736,13.4067-3.4849,3.2714-2.3116,4.907-5.512,4.907-9.5304,0-3.3784-1.2094-6.0099-3.5561-7.8591-2.3476-1.8493-6.2232-3.3072-11.6286-4.374l-18.3849-3.6629c-10.7752-2.1336-18.6697-5.6541-23.6844-10.5616-5.0138-4.8719-7.5385-11.2375-7.5385-19.132,0-6.7211,1.7781-12.731,5.2986-17.923,3.5561-5.2274,8.6767-9.317,15.433-12.3041,6.7216-2.9516,14.6873-4.4452,23.9327-4.4452,9.3531,0,17.3544,1.5291,23.9692,4.6229,6.5783,3.0582,11.6286,7.2544,15.078,12.5532,3.4849,5.3342,5.3698,11.3085,5.7249,17.8872h-26.3862c-.178-5.1564-1.9916-9.2459-5.3342-12.2331-3.3781-2.9516-7.8945-4.4452-13.5491-4.4452-3.5205,0-6.6148,.5691-9.3166,1.6359-2.6671,1.0668-4.7655,2.5959-6.2588,4.5873-1.4586,1.9914-2.2052,4.2674-2.2052,6.8277,0,2.9516,1.067,5.3698,3.2358,7.1835,2.134,1.8137,5.5122,3.165,10.0997,4.054l19.8079,3.7339c7.1479,1.3869,13.0507,3.4496,17.7095,6.1167,4.6943,2.6315,8.1793,5.9743,10.4904,9.9927,2.2755,4.0182,3.4137,8.7479,3.4137,14.1889Z" style="fill:#acabd3;"/><path d="M473.7128,63.0825v-21.4401h-25.1777V185.0253h25.7819v-51.6705c1.1026,2.027,2.3467,3.9117,3.7332,5.5832,3.2366,3.9117,7.1123,6.8633,11.5939,8.7835,4.4799,1.9558,9.459,2.9516,14.9712,2.9516,8.8547,0,16.5357-2.276,23.0437-6.8277,6.5427-4.552,11.5574-11.0241,15.078-19.4521,3.4849-8.428,5.263-18.3139,5.263-29.6936,0-11.4509-1.6713-21.408-5.0138-29.836-3.3434-8.3924-8.1437-14.8646-14.4025-19.381-6.2588-4.5161-13.6914-6.7921-22.2258-6.7921-5.7258,0-10.7752,1.1024-15.1136,3.3072-4.3384,2.1692-7.9657,5.4054-10.8464,9.6372-1.1738,1.6713-5.154,7.669-6.6851,11.4474Zm45.0559,50.4647c-1.7425,5.3342-4.374,9.4948-7.8589,12.4465-3.5214,2.9872-7.8242,4.4452-12.9448,4.4452-5.0494,0-9.3522-1.4579-12.9439-4.4452-3.5561-2.9516-6.2588-7.1123-8.0725-12.4465-1.8137-5.3698-2.7383-11.6286-2.7383-18.7763,0-7.1123,.9246-13.3711,2.7383-18.7765,1.8137-5.4054,4.5164-9.6016,8.0725-12.6242,3.5917-3.0582,7.8945-4.552,12.9439-4.552,5.1206,0,9.4234,1.4937,12.9448,4.552,3.4849,3.0226,6.1164,7.2188,7.8589,12.553,1.7781,5.3698,2.6315,11.6642,2.6315,18.8477,0,7.1476-.8534,13.4065-2.6315,18.7763Z" style="fill:#acabd3;"/></g></g></svg>